<?xml version="1.0" encoding="iso-8859-1"?>
<!-- Generator: Adobe Illustrator 19.0.0, SVG Export Plug-In . SVG Version: 6.00 Build 0)  -->
<svg version="1.1" id="Layer_1" xmlns="http://www.w3.org/2000/svg" xmlns:xlink="http://www.w3.org/1999/xlink" x="0px" y="0px"
	 viewBox="0 0 512 512" style="enable-background:new 0 0 512 512;" xml:space="preserve">
<polygon style="fill:#3C66B1;" points="77.928,28.037 125.609,28.037 125.609,101.69 44.976,101.69 44.976,28.037 "/>
<polygon style="fill:#2D5691;" points="110.119,28.036 110.119,67.753 44.976,67.753 44.976,83.242 125.609,83.242 125.609,28.036 
	"/>
<path style="fill:#DFDFE2;" d="M502.437,483.963H9.416c-5.179,0-9.416-4.237-9.416-9.416V91.208c0-5.179,4.237-9.416,9.416-9.416
	h493.021c5.179,0,9.416,4.237,9.416,9.416v383.339C511.854,479.726,507.616,483.963,502.437,483.963z"/>
<polygon style="fill:#FF5023;" points="344.094,406.316 511.854,406.316 511.854,214.522 380.005,214.522 128.855,214.522 
	0,214.522 0,406.316 29.051,406.316 "/>
<path style="fill:#77757E;" d="M254.357,148.157c79.902,0,144.676,64.773,144.676,144.676S334.26,437.508,254.357,437.508
	s-144.676-64.773-144.676-144.676c0-59.927,36.435-111.343,88.361-133.306C198.043,159.526,225.963,148.157,254.357,148.157z"/>
<circle style="fill:#ACAAB1;" cx="254.36" cy="292.829" r="112.888"/>
<path style="fill:#DFDFE2;" d="M329.464,347.251H180.577c-3.419,0-6.191-2.771-6.191-6.191V245.93c0-3.419,2.771-6.191,6.191-6.191
	h148.886c3.419,0,6.191,2.771,6.191,6.191v95.131C335.654,344.48,332.883,347.251,329.464,347.251z"/>
<g>
	<circle style="fill:#FFFFFF;" cx="75.831" cy="148.157" r="26.375"/>
	<rect x="387.754" y="117.628" style="fill:#FFFFFF;" width="76.982" height="47.782"/>
	<polygon style="fill:#FFFFFF;" points="279.047,347.251 191.25,347.251 233.099,239.741 320.897,239.741 	"/>
</g>
<g>
	<path style="opacity:0.24;fill:#1D1D20;enable-background:new    ;" d="M502.584,81.792H482.14v352.433
		c0,5.179-4.237,9.416-9.416,9.416H0.146v30.907c0,5.179,4.237,9.416,9.416,9.416h493.021c5.179,0,9.416-4.237,9.416-9.416V91.208
		C512,86.029,507.763,81.792,502.584,81.792z"/>
	<path style="opacity:0.24;fill:#1D1D20;enable-background:new    ;" d="M333.976,172.029c15.082,22.839,23.872,50.2,23.872,79.618
		c0,79.902-64.773,144.676-144.676,144.676c-29.418,0-56.779-8.788-79.618-23.872c25.884,39.194,70.32,65.058,120.804,65.058
		c79.902,0,144.676-64.773,144.676-144.676C399.032,242.349,373.169,197.912,333.976,172.029z"/>
</g>
<g>
</g>
<g>
</g>
<g>
</g>
<g>
</g>
<g>
</g>
<g>
</g>
<g>
</g>
<g>
</g>
<g>
</g>
<g>
</g>
<g>
</g>
<g>
</g>
<g>
</g>
<g>
</g>
<g>
</g>
</svg>
